<svg xmlns="http://www.w3.org/2000/svg" xmlns:xlink="http://www.w3.org/1999/xlink" width="500" zoomAndPan="magnify" viewBox="0 0 375 374.999991" height="500" preserveAspectRatio="xMidYMid meet" version="1.0"><defs><g/></defs><g fill="#38b6ff" fill-opacity="1"><g transform="translate(10.464848, 235.494609)"><g><path d="M 89.199219 -1.703125 L 46.019531 -112.777344 C 45.59375 -113.910156 43.605469 -113.910156 43.179688 -112.777344 L 0.140625 -1.703125 C -0.285156 -0.851562 0.285156 0 1.5625 0 L 21.019531 0 C 21.589844 0 22.300781 -0.285156 22.441406 -0.851562 L 44.597656 -64.199219 L 67.039062 -0.851562 C 67.183594 -0.285156 67.894531 0 68.320312 0 L 87.917969 0 C 88.914062 0 89.625 -0.851562 89.199219 -1.703125 Z M 89.199219 -1.703125 "/></g></g></g><g fill="#38b6ff" fill-opacity="1"><g transform="translate(64.345441, 235.494609)"><g><path d="M 59.230469 -92.464844 L 44.316406 -50.847656 L 22.15625 -112.777344 C 22.015625 -113.34375 21.449219 -113.628906 20.738281 -113.628906 L 1.421875 -113.628906 C 0.285156 -113.628906 -0.285156 -112.777344 0.140625 -111.921875 L 42.894531 -0.710938 C 43.460938 0.285156 45.167969 0.285156 45.59375 -0.710938 L 81.101562 -92.464844 Z M 59.230469 -92.464844 "/></g></g></g><g fill="#000000" fill-opacity="0.4"><g transform="translate(141.196525, 196.01242)"><g><path d="M 12.109375 -9.90625 L 6.734375 -11.171875 C 4.585938 -11.679688 3.125 -12.457031 2.34375 -13.5 C 1.570312 -14.550781 1.1875 -16.050781 1.1875 -18 C 1.1875 -21.070312 2 -23.332031 3.625 -24.78125 C 5.25 -26.238281 7.765625 -26.96875 11.171875 -26.96875 C 12.585938 -26.96875 13.84375 -26.910156 14.9375 -26.796875 C 16.039062 -26.691406 17.0625 -26.492188 18 -26.203125 L 18 -20.328125 C 15.851562 -20.691406 14.375 -20.898438 13.5625 -20.953125 C 12.757812 -21.015625 11.921875 -21.046875 11.046875 -21.046875 C 9.859375 -21.046875 9 -20.847656 8.46875 -20.453125 C 7.9375 -20.054688 7.671875 -19.394531 7.671875 -18.46875 C 7.671875 -18.007812 7.753906 -17.660156 7.921875 -17.421875 C 8.085938 -17.179688 8.410156 -17.003906 8.890625 -16.890625 L 13.96875 -15.703125 C 15.4375 -15.367188 16.492188 -15.039062 17.140625 -14.71875 C 17.796875 -14.394531 18.320312 -13.976562 18.71875 -13.46875 C 19.164062 -12.925781 19.492188 -12.234375 19.703125 -11.390625 C 19.921875 -10.546875 20.03125 -9.515625 20.03125 -8.296875 C 20.03125 -5.222656 19.207031 -3 17.5625 -1.625 C 15.925781 -0.257812 13.390625 0.421875 9.953125 0.421875 C 8.203125 0.421875 6.535156 0.3125 4.953125 0.09375 C 3.367188 -0.113281 2.140625 -0.367188 1.265625 -0.671875 L 1.265625 -6.90625 C 2.398438 -6.539062 3.742188 -6.25 5.296875 -6.03125 C 6.847656 -5.820312 8.398438 -5.71875 9.953125 -5.71875 C 11.191406 -5.71875 12.050781 -5.867188 12.53125 -6.171875 C 13.007812 -6.484375 13.25 -7.109375 13.25 -8.046875 C 13.25 -8.640625 13.171875 -9.066406 13.015625 -9.328125 C 12.859375 -9.597656 12.554688 -9.789062 12.109375 -9.90625 Z M 12.109375 -9.90625 "/></g></g></g><g fill="#000000" fill-opacity="0.4"><g transform="translate(184.975545, 196.01242)"><g><path d="M 18.03125 -11.171875 L 18.03125 -26.546875 L 24.609375 -26.546875 L 24.609375 -11.171875 C 24.609375 -7.304688 23.660156 -4.40625 21.765625 -2.46875 C 19.867188 -0.539062 17.03125 0.421875 13.25 0.421875 C 9.269531 0.421875 6.367188 -0.492188 4.546875 -2.328125 C 2.734375 -4.160156 1.828125 -7.109375 1.828125 -11.171875 L 1.828125 -26.546875 L 8.390625 -26.546875 L 8.390625 -11.171875 C 8.390625 -9.023438 8.71875 -7.578125 9.375 -6.828125 C 10.039062 -6.085938 11.332031 -5.71875 13.25 -5.71875 C 15.144531 -5.71875 16.414062 -6.085938 17.0625 -6.828125 C 17.707031 -7.578125 18.03125 -9.023438 18.03125 -11.171875 Z M 18.03125 -11.171875 "/></g></g></g><g fill="#000000" fill-opacity="0.4"><g transform="translate(234.469695, 196.01242)"><g><path d="M 8.59375 -8.546875 L 8.59375 0 L 2.03125 0 L 2.03125 -26.546875 L 11.734375 -26.546875 C 15.828125 -26.546875 18.734375 -25.851562 20.453125 -24.46875 C 22.171875 -23.09375 23.03125 -20.796875 23.03125 -17.578125 C 23.03125 -15.398438 22.570312 -13.625 21.65625 -12.25 C 20.738281 -10.882812 19.347656 -9.890625 17.484375 -9.265625 L 23.96875 0 L 16.09375 0 L 10.59375 -8.546875 Z M 16.390625 -17.578125 C 16.390625 -18.703125 16.050781 -19.488281 15.375 -19.9375 C 14.695312 -20.394531 13.484375 -20.625 11.734375 -20.625 L 8.59375 -20.625 L 8.59375 -13.84375 L 11.734375 -13.84375 C 13.484375 -13.84375 14.695312 -14.117188 15.375 -14.671875 C 16.050781 -15.222656 16.390625 -16.191406 16.390625 -17.578125 Z M 16.390625 -17.578125 "/></g></g></g><g fill="#000000" fill-opacity="0.4"><g transform="translate(281.97414, 196.01242)"><g><path d="M 17.0625 -9.859375 L 12.484375 -9.859375 L 12.484375 -15.15625 L 23.203125 -15.15625 L 23.203125 -1.1875 C 22.410156 -0.820312 21 -0.460938 18.96875 -0.109375 C 16.9375 0.242188 15.085938 0.421875 13.421875 0.421875 C 8.816406 0.421875 5.617188 -0.632812 3.828125 -2.75 C 2.035156 -4.863281 1.140625 -8.378906 1.140625 -13.296875 C 1.140625 -18.035156 2.179688 -21.5 4.265625 -23.6875 C 6.359375 -25.875 9.691406 -26.96875 14.265625 -26.96875 C 15.929688 -26.96875 17.421875 -26.929688 18.734375 -26.859375 C 20.046875 -26.796875 21.054688 -26.691406 21.765625 -26.546875 L 21.765625 -20.796875 C 20.835938 -20.878906 19.726562 -20.941406 18.4375 -20.984375 C 17.15625 -21.023438 15.765625 -21.046875 14.265625 -21.046875 C 12.660156 -21.046875 11.46875 -20.90625 10.6875 -20.625 C 9.914062 -20.34375 9.332031 -19.847656 8.9375 -19.140625 C 8.570312 -18.578125 8.3125 -17.820312 8.15625 -16.875 C 8 -15.925781 7.921875 -14.734375 7.921875 -13.296875 C 7.921875 -11.910156 7.988281 -10.75 8.125 -9.8125 C 8.269531 -8.882812 8.5 -8.140625 8.8125 -7.578125 C 9.207031 -6.816406 9.765625 -6.28125 10.484375 -5.96875 C 11.203125 -5.65625 12.320312 -5.5 13.84375 -5.5 C 14.351562 -5.5 14.882812 -5.519531 15.4375 -5.5625 C 15.988281 -5.601562 16.53125 -5.671875 17.0625 -5.765625 Z M 17.0625 -9.859375 "/></g></g></g><g fill="#000000" fill-opacity="0.4"><g transform="translate(329.520926, 196.01242)"><g><path d="M 20.328125 -6.140625 L 20.328125 0 L 2.03125 0 L 2.03125 -26.546875 L 19.9375 -26.546875 L 19.9375 -20.625 L 8.59375 -20.625 L 8.59375 -16.21875 L 18.375 -16.21875 L 18.375 -10.71875 L 8.59375 -10.71875 L 8.59375 -6.140625 Z M 20.328125 -6.140625 "/></g></g></g><g fill="#000000" fill-opacity="1"><g transform="translate(139.325159, 194.141051)"><g><path d="M 12.109375 -9.90625 L 6.734375 -11.171875 C 4.585938 -11.679688 3.125 -12.457031 2.34375 -13.5 C 1.570312 -14.550781 1.1875 -16.050781 1.1875 -18 C 1.1875 -21.070312 2 -23.332031 3.625 -24.78125 C 5.25 -26.238281 7.765625 -26.96875 11.171875 -26.96875 C 12.585938 -26.96875 13.84375 -26.910156 14.9375 -26.796875 C 16.039062 -26.691406 17.0625 -26.492188 18 -26.203125 L 18 -20.328125 C 15.851562 -20.691406 14.375 -20.898438 13.5625 -20.953125 C 12.757812 -21.015625 11.921875 -21.046875 11.046875 -21.046875 C 9.859375 -21.046875 9 -20.847656 8.46875 -20.453125 C 7.9375 -20.054688 7.671875 -19.394531 7.671875 -18.46875 C 7.671875 -18.007812 7.753906 -17.660156 7.921875 -17.421875 C 8.085938 -17.179688 8.410156 -17.003906 8.890625 -16.890625 L 13.96875 -15.703125 C 15.4375 -15.367188 16.492188 -15.039062 17.140625 -14.71875 C 17.796875 -14.394531 18.320312 -13.976562 18.71875 -13.46875 C 19.164062 -12.925781 19.492188 -12.234375 19.703125 -11.390625 C 19.921875 -10.546875 20.03125 -9.515625 20.03125 -8.296875 C 20.03125 -5.222656 19.207031 -3 17.5625 -1.625 C 15.925781 -0.257812 13.390625 0.421875 9.953125 0.421875 C 8.203125 0.421875 6.535156 0.3125 4.953125 0.09375 C 3.367188 -0.113281 2.140625 -0.367188 1.265625 -0.671875 L 1.265625 -6.90625 C 2.398438 -6.539062 3.742188 -6.25 5.296875 -6.03125 C 6.847656 -5.820312 8.398438 -5.71875 9.953125 -5.71875 C 11.191406 -5.71875 12.050781 -5.867188 12.53125 -6.171875 C 13.007812 -6.484375 13.25 -7.109375 13.25 -8.046875 C 13.25 -8.640625 13.171875 -9.066406 13.015625 -9.328125 C 12.859375 -9.597656 12.554688 -9.789062 12.109375 -9.90625 Z M 12.109375 -9.90625 "/></g></g></g><g fill="#000000" fill-opacity="1"><g transform="translate(183.104178, 194.141051)"><g><path d="M 18.03125 -11.171875 L 18.03125 -26.546875 L 24.609375 -26.546875 L 24.609375 -11.171875 C 24.609375 -7.304688 23.660156 -4.40625 21.765625 -2.46875 C 19.867188 -0.539062 17.03125 0.421875 13.25 0.421875 C 9.269531 0.421875 6.367188 -0.492188 4.546875 -2.328125 C 2.734375 -4.160156 1.828125 -7.109375 1.828125 -11.171875 L 1.828125 -26.546875 L 8.390625 -26.546875 L 8.390625 -11.171875 C 8.390625 -9.023438 8.71875 -7.578125 9.375 -6.828125 C 10.039062 -6.085938 11.332031 -5.71875 13.25 -5.71875 C 15.144531 -5.71875 16.414062 -6.085938 17.0625 -6.828125 C 17.707031 -7.578125 18.03125 -9.023438 18.03125 -11.171875 Z M 18.03125 -11.171875 "/></g></g></g><g fill="#000000" fill-opacity="1"><g transform="translate(232.598329, 194.141051)"><g><path d="M 8.59375 -8.546875 L 8.59375 0 L 2.03125 0 L 2.03125 -26.546875 L 11.734375 -26.546875 C 15.828125 -26.546875 18.734375 -25.851562 20.453125 -24.46875 C 22.171875 -23.09375 23.03125 -20.796875 23.03125 -17.578125 C 23.03125 -15.398438 22.570312 -13.625 21.65625 -12.25 C 20.738281 -10.882812 19.347656 -9.890625 17.484375 -9.265625 L 23.96875 0 L 16.09375 0 L 10.59375 -8.546875 Z M 16.390625 -17.578125 C 16.390625 -18.703125 16.050781 -19.488281 15.375 -19.9375 C 14.695312 -20.394531 13.484375 -20.625 11.734375 -20.625 L 8.59375 -20.625 L 8.59375 -13.84375 L 11.734375 -13.84375 C 13.484375 -13.84375 14.695312 -14.117188 15.375 -14.671875 C 16.050781 -15.222656 16.390625 -16.191406 16.390625 -17.578125 Z M 16.390625 -17.578125 "/></g></g></g><g fill="#000000" fill-opacity="1"><g transform="translate(280.102774, 194.141051)"><g><path d="M 17.0625 -9.859375 L 12.484375 -9.859375 L 12.484375 -15.15625 L 23.203125 -15.15625 L 23.203125 -1.1875 C 22.410156 -0.820312 21 -0.460938 18.96875 -0.109375 C 16.9375 0.242188 15.085938 0.421875 13.421875 0.421875 C 8.816406 0.421875 5.617188 -0.632812 3.828125 -2.75 C 2.035156 -4.863281 1.140625 -8.378906 1.140625 -13.296875 C 1.140625 -18.035156 2.179688 -21.5 4.265625 -23.6875 C 6.359375 -25.875 9.691406 -26.96875 14.265625 -26.96875 C 15.929688 -26.96875 17.421875 -26.929688 18.734375 -26.859375 C 20.046875 -26.796875 21.054688 -26.691406 21.765625 -26.546875 L 21.765625 -20.796875 C 20.835938 -20.878906 19.726562 -20.941406 18.4375 -20.984375 C 17.15625 -21.023438 15.765625 -21.046875 14.265625 -21.046875 C 12.660156 -21.046875 11.46875 -20.90625 10.6875 -20.625 C 9.914062 -20.34375 9.332031 -19.847656 8.9375 -19.140625 C 8.570312 -18.578125 8.3125 -17.820312 8.15625 -16.875 C 8 -15.925781 7.921875 -14.734375 7.921875 -13.296875 C 7.921875 -11.910156 7.988281 -10.75 8.125 -9.8125 C 8.269531 -8.882812 8.5 -8.140625 8.8125 -7.578125 C 9.207031 -6.816406 9.765625 -6.28125 10.484375 -5.96875 C 11.203125 -5.65625 12.320312 -5.5 13.84375 -5.5 C 14.351562 -5.5 14.882812 -5.519531 15.4375 -5.5625 C 15.988281 -5.601562 16.53125 -5.671875 17.0625 -5.765625 Z M 17.0625 -9.859375 "/></g></g></g><g fill="#000000" fill-opacity="1"><g transform="translate(327.64956, 194.141051)"><g><path d="M 20.328125 -6.140625 L 20.328125 0 L 2.03125 0 L 2.03125 -26.546875 L 19.9375 -26.546875 L 19.9375 -20.625 L 8.59375 -20.625 L 8.59375 -16.21875 L 18.375 -16.21875 L 18.375 -10.71875 L 8.59375 -10.71875 L 8.59375 -6.140625 Z M 20.328125 -6.140625 "/></g></g></g><g fill="#000000" fill-opacity="1"><g transform="translate(228.787387, 219.935743)"><g><path d="M 3.25 -2.8125 L 3.25 0 L 0.765625 0 L 0.765625 -10.03125 L 4.4375 -10.03125 C 5.976562 -10.03125 7.070312 -9.757812 7.71875 -9.21875 C 8.375 -8.6875 8.703125 -7.785156 8.703125 -6.515625 C 8.703125 -5.253906 8.359375 -4.320312 7.671875 -3.71875 C 6.984375 -3.113281 5.921875 -2.8125 4.484375 -2.8125 Z M 6.1875 -6.515625 C 6.1875 -6.984375 6.054688 -7.3125 5.796875 -7.5 C 5.546875 -7.695312 5.09375 -7.796875 4.4375 -7.796875 L 3.25 -7.796875 L 3.25 -4.984375 L 4.4375 -4.984375 C 5.101562 -4.984375 5.5625 -5.09375 5.8125 -5.3125 C 6.0625 -5.539062 6.1875 -5.941406 6.1875 -6.515625 Z M 6.1875 -6.515625 "/></g></g></g><g fill="#000000" fill-opacity="1"><g transform="translate(238.577235, 219.935743)"><g><path d="M 3.25 -10.03125 L 3.25 0 L 0.765625 0 L 0.765625 -10.03125 Z M 3.25 -10.03125 "/></g></g></g><g fill="#000000" fill-opacity="1"><g transform="translate(243.408267, 219.935743)"><g><path d="M 5.125 -2.15625 C 5.550781 -2.15625 6.015625 -2.203125 6.515625 -2.296875 C 7.015625 -2.390625 7.460938 -2.507812 7.859375 -2.65625 L 7.859375 -0.46875 C 7.265625 -0.226562 6.734375 -0.0664062 6.265625 0.015625 C 5.796875 0.109375 5.304688 0.15625 4.796875 0.15625 C 3.867188 0.15625 3.128906 0.0507812 2.578125 -0.15625 C 2.023438 -0.375 1.582031 -0.71875 1.25 -1.1875 C 0.96875 -1.59375 0.757812 -2.109375 0.625 -2.734375 C 0.5 -3.367188 0.4375 -4.132812 0.4375 -5.03125 C 0.4375 -6.820312 0.820312 -8.128906 1.59375 -8.953125 C 2.363281 -9.773438 3.59375 -10.1875 5.28125 -10.1875 C 5.769531 -10.1875 6.207031 -10.175781 6.59375 -10.15625 C 6.976562 -10.132812 7.320312 -10.097656 7.625 -10.046875 L 7.625 -7.890625 C 7.28125 -7.910156 6.914062 -7.925781 6.53125 -7.9375 C 6.15625 -7.945312 5.738281 -7.953125 5.28125 -7.953125 C 4.695312 -7.953125 4.257812 -7.894531 3.96875 -7.78125 C 3.6875 -7.664062 3.476562 -7.472656 3.34375 -7.203125 C 3.21875 -6.984375 3.125 -6.695312 3.0625 -6.34375 C 3.007812 -6 2.984375 -5.5625 2.984375 -5.03125 C 2.984375 -4.519531 3.007812 -4.097656 3.0625 -3.765625 C 3.113281 -3.429688 3.191406 -3.148438 3.296875 -2.921875 C 3.429688 -2.648438 3.628906 -2.453125 3.890625 -2.328125 C 4.160156 -2.210938 4.570312 -2.15625 5.125 -2.15625 Z M 5.125 -2.15625 "/></g></g></g><g fill="#000000" fill-opacity="1"><g transform="translate(252.350315, 219.935743)"><g><path d="M 6.03125 -5.171875 L 9.796875 0 L 6.65625 0 L 3.921875 -4.09375 L 3.25 -4.09375 L 3.25 0 L 0.765625 0 L 0.765625 -10.03125 L 3.25 -10.03125 L 3.25 -6.078125 L 3.921875 -6.078125 L 6.6875 -10.03125 L 9.65625 -10.03125 Z M 6.03125 -5.171875 "/></g></g></g><g fill="#000000" fill-opacity="1"><g transform="translate(262.764003, 219.935743)"><g><path d="M 4.578125 -3.75 L 2.546875 -4.21875 C 1.734375 -4.414062 1.179688 -4.710938 0.890625 -5.109375 C 0.597656 -5.503906 0.453125 -6.066406 0.453125 -6.796875 C 0.453125 -7.960938 0.753906 -8.816406 1.359375 -9.359375 C 1.972656 -9.910156 2.925781 -10.1875 4.21875 -10.1875 C 4.757812 -10.1875 5.234375 -10.164062 5.640625 -10.125 C 6.054688 -10.082031 6.441406 -10.007812 6.796875 -9.90625 L 6.796875 -7.6875 C 5.984375 -7.820312 5.425781 -7.898438 5.125 -7.921875 C 4.820312 -7.941406 4.503906 -7.953125 4.171875 -7.953125 C 3.722656 -7.953125 3.394531 -7.875 3.1875 -7.71875 C 2.988281 -7.570312 2.890625 -7.320312 2.890625 -6.96875 C 2.890625 -6.800781 2.921875 -6.671875 2.984375 -6.578125 C 3.054688 -6.492188 3.179688 -6.429688 3.359375 -6.390625 L 5.28125 -5.9375 C 5.832031 -5.8125 6.226562 -5.6875 6.46875 -5.5625 C 6.71875 -5.4375 6.921875 -5.28125 7.078125 -5.09375 C 7.242188 -4.882812 7.363281 -4.617188 7.4375 -4.296875 C 7.519531 -3.984375 7.5625 -3.597656 7.5625 -3.140625 C 7.5625 -1.972656 7.253906 -1.128906 6.640625 -0.609375 C 6.023438 -0.0976562 5.066406 0.15625 3.765625 0.15625 C 3.097656 0.15625 2.460938 0.113281 1.859375 0.03125 C 1.265625 -0.0390625 0.804688 -0.132812 0.484375 -0.25 L 0.484375 -2.609375 C 0.910156 -2.472656 1.414062 -2.363281 2 -2.28125 C 2.582031 -2.195312 3.171875 -2.15625 3.765625 -2.15625 C 4.234375 -2.15625 4.554688 -2.210938 4.734375 -2.328125 C 4.921875 -2.453125 5.015625 -2.691406 5.015625 -3.046875 C 5.015625 -3.265625 4.984375 -3.425781 4.921875 -3.53125 C 4.859375 -3.632812 4.742188 -3.707031 4.578125 -3.75 Z M 4.578125 -3.75 "/></g></g></g></svg>